<svg width="181" height="44" viewBox="0 0 181 44" fill="none" xmlns="http://www.w3.org/2000/svg">
<path d="M93.9544 33.2918C92.2554 35.7032 89.4521 36.9892 85.9268 36.9892C81.3395 36.9892 78.0265 34.6181 76.8372 30.6394H102.917L102.959 28.6701C103.086 23.325 101.345 18.5827 98.032 15.3675C94.9738 12.3935 90.8113 10.8262 85.9692 10.8262C75.9028 10.8262 68.8945 17.6181 68.8945 27.3439C68.8945 37.1098 75.9028 43.9419 85.8843 43.9419C93.2324 43.9419 99.3487 40.1642 101.94 34.0956L102.279 33.2918H93.9544ZM86.0117 17.7789C90.5565 17.7789 93.827 20.0295 95.1012 23.9278H76.8797C78.069 20.0696 81.382 17.7789 86.0117 17.7789Z" fill="#745AFC"/>
<path d="M56.5736 33.2918C54.8746 35.7032 52.0713 36.9892 48.5459 36.9892C43.9587 36.9892 40.6457 34.6181 39.4564 30.6394H65.5357L65.5781 28.6701C65.7055 23.325 63.9641 18.5827 60.6511 15.3675C57.5929 12.3935 53.4304 10.8262 48.5884 10.8262C38.5219 10.8262 31.5137 17.6181 31.5137 27.3439C31.5137 37.1098 38.5219 43.9419 48.5034 43.9419C55.8515 43.9419 61.9678 40.1642 64.5587 34.0956L64.8985 33.2918H56.5736ZM48.5884 17.7789C53.1331 17.7789 56.4037 20.0295 57.6779 23.9278H39.4564C40.6881 20.0696 44.0011 17.7789 48.5884 17.7789Z" fill="#745AFC"/>
<path d="M167.604 28.3486C167.435 30.76 166.797 32.7292 165.693 34.176C164.419 35.8238 162.508 36.6276 159.789 36.6276C157.113 36.6276 155.159 35.8238 153.885 34.176C152.738 32.689 152.101 30.7198 151.931 28.3486H143.352C143.394 31.2824 144.031 33.9349 145.263 36.2257C146.537 38.637 148.448 40.5661 150.912 41.8923C153.333 43.2186 156.349 43.9018 159.789 43.9018C163.272 43.9018 166.288 43.2186 168.709 41.8923C171.172 40.5259 173.041 38.637 174.358 36.2257C175.59 33.9349 176.227 31.2824 176.269 28.3486H167.604Z" fill="#745AFC"/>
<path d="M179.666 20.4494C178.689 19.5652 177.712 18.7213 176.735 17.8371C176.225 17.395 175.758 16.9529 175.248 16.5511C174.526 15.908 173.847 15.265 172.785 15.1444C171.681 15.0239 170.874 15.5463 170.066 16.109C169.514 16.4707 169.005 16.8726 168.452 17.2343C167.348 17.9979 166.244 18.8016 165.097 19.5652C164.545 19.9269 164.12 20.369 163.95 21.012C163.78 21.5747 163.865 22.3383 164.205 22.8607C164.885 23.8655 166.541 24.5085 167.645 23.7047C168.622 23.0215 169.642 22.3383 170.619 21.6149C171.086 21.2934 171.596 20.9317 172.063 20.6101C172.148 20.57 172.19 20.5298 172.275 20.4494C172.657 20.8111 173.082 21.1326 173.464 21.4943C174.356 22.2579 175.206 23.0215 176.098 23.8253C177.075 24.6692 178.731 24.7898 179.666 23.8253C180.558 22.9009 180.685 21.3737 179.666 20.4494Z" fill="#745AFC"/>
<path d="M138.085 18.5026C136.768 16.0912 134.814 14.1622 132.308 12.7957C129.802 11.4293 126.744 10.7461 123.176 10.7461C119.608 10.7461 116.508 11.4293 114.002 12.7957C111.496 14.1622 109.542 16.051 108.225 18.5026C106.909 20.8737 106.271 23.687 106.271 26.7815V30.8808H115.106V27.7059C115.106 24.7319 115.786 22.3205 117.145 20.5924C118.419 18.9447 120.415 18.1409 123.219 18.1409C125.98 18.1409 127.976 18.9447 129.25 20.5924C130.609 22.3205 131.289 24.6917 131.289 27.7059V43.9422H140.081V26.7815C140.039 23.687 139.359 20.9139 138.085 18.5026Z" fill="#745AFC"/>
<path d="M115.065 33.2129H106.23V43.9434H115.065V33.2129Z" fill="#745AFC"/>
<path d="M20.0904 28.4283C21.8318 27.0619 23.1485 25.0926 24.3378 22.3196L28.3729 12.3125H20.3877L17.372 19.7475C15.8429 23.5252 14.3563 24.4496 9.68416 24.4496H7.51796H0V43.9413H7.47549V31.3219H9.55674C10.9159 31.3219 12.1052 31.2817 13.1671 31.121L21.6619 43.9011H30.5391L20.0904 28.4283Z" fill="#745AFC"/>
<path d="M7.47549 0.416992H0V21.476H7.47549V0.416992Z" fill="#745AFC"/>
<path d="M147.938 23.9682C150.495 23.9682 152.568 22.007 152.568 19.5876C152.568 17.1683 150.495 15.207 147.938 15.207C145.381 15.207 143.309 17.1683 143.309 19.5876C143.309 22.007 145.381 23.9682 147.938 23.9682Z" fill="#F47832"/>
<path d="M150.361 11.2686C150.191 10.9872 149.724 10.7863 149.384 11.0274C149.087 11.2284 148.747 11.4695 148.45 11.6704C148.28 11.791 148.152 11.8714 147.982 11.992C147.94 12.0321 147.897 12.0321 147.855 12.0723C147.728 11.9518 147.6 11.8312 147.43 11.7106C147.175 11.4695 146.878 11.2284 146.623 10.9872C146.368 10.7461 145.901 10.7059 145.604 10.9872C145.349 11.2284 145.307 11.6704 145.604 11.9518C145.901 12.2331 146.241 12.5144 146.538 12.7555C146.708 12.8761 146.836 13.0369 147.006 13.1574C147.218 13.3584 147.43 13.5593 147.728 13.5995C148.067 13.6397 148.28 13.4789 148.535 13.3182C148.704 13.1976 148.874 13.0771 149.044 12.9565C149.384 12.7154 149.724 12.4742 150.106 12.2331C150.403 11.992 150.573 11.5901 150.361 11.2686Z" fill="#745AFC"/>
</svg>
